Coordinates
version=1
nRows=14
nColumns=24
inDegrees=yes

Units are S.I. units (second, meters, Newtons, ...)
Angles are in degrees.

endheader
time	pelvis_tilt	pelvis_list	pelvis_rotation	pelvis_tx	pelvis_ty	pelvis_tz	hip_flexion_r	hip_adduction_r	hip_rotation_r	knee_angle_r	ankle_angle_r	subtalar_angle_r	mtp_angle_r	hip_flexion_l	hip_adduction_l	hip_rotation_l	knee_angle_l	ankle_angle_l	subtalar_angle_l	mtp_angle_l	lumbar_extension	lumbar_bending	lumbar_rotation
      0.50400000	     -0.28672881	      1.10646465	     10.91414751	     -0.86788721	      0.89186509	      0.29742409	     26.36814738	     -1.67504230	    -11.76767807	     -4.62037897	      2.79311751	      1.39695974	      5.39858386	    -16.63141487	      2.10935799	      4.65848665	     -8.87969368	     17.68305816	      2.86979618	      7.99036540	     -6.07114477	     -2.22457735	    -11.12976711
      0.50816667	     -0.32954186	      1.03471645	     10.94961073	     -0.86179084	      0.89088563	      0.29772137	     26.48925235	     -1.48510322	    -11.55265078	     -5.15284274	      2.69245547	      1.37479237	      5.34681166	    -16.60564353	      1.92889603	      4.46275751	     -9.66529112	     17.83618911	      3.27625398	      8.10356461	     -5.98198722	     -2.12222517	    -11.08401048
      0.51233333	     -0.33716991	      0.94517438	     10.97726205	     -0.85563096	      0.88999084	      0.29802589	     26.55797487	     -1.26436469	    -11.32076321	     -5.71284575	      2.52684315	      1.28218577	      5.33051631	    -16.59444149	      1.71929811	      4.21355257	    -10.49802892	     17.96801662	      3.71717355	      8.27071452	     -5.91549006	     -1.97912814	    -11.03157731
      0.51650000	     -0.34360626	      0.84489726	     10.99086936	     -0.84941557	      0.88913051	      0.29835099	     26.62427683	     -1.02440493	    -11.06715722	     -6.31664804	      2.30319770	      1.11998425	      5.34993462	    -16.57486950	      1.49943732	      3.96810175	    -11.35626925	     18.05432705	      4.14342863	      8.48408999	     -5.84140962	     -1.82764351	    -10.95397733
      0.52066667	     -0.36553712	      0.73618627	     10.99718438	     -0.84317225	      0.88828421	      0.29868203	     26.70243790	     -0.77454033	    -10.77408718	     -6.95138221	      2.03129789	      0.92763758	      5.38545744	    -16.52500802	      1.27890930	      3.75795964	    -12.24098615	     18.11660428	      4.44846401	      8.66974924	     -5.74356803	     -1.65490550	    -10.88161415
      0.52483333	     -0.31551427	      0.61711647	     11.00313130	     -0.83687492	      0.88758469	      0.29902999	     26.69824264	     -0.49745606	    -10.52298804	     -7.60939175	      1.67243365	      0.59407710	      5.49012792	    -16.51960576	      1.01302220	      3.42851185	    -13.18683392	     18.09186422	      5.04509392	      9.07882600	     -5.73509423	     -1.47088633	    -10.77722121
      0.52900000	     -0.32622762	      0.49314325	     10.99785488	     -0.83053376	      0.88683229	      0.29937174	     26.76227539	     -0.22728898	    -10.25248691	     -8.30006532	      1.28237563	      0.33341740	      6.59468581	    -16.43246910	      0.76319473	      3.14107780	    -14.16225503	     17.96995684	      5.37202070	     12.93901627	     -5.63114788	     -1.27713169	    -10.72461131
      0.53316667	     -0.35120319	      0.37832041	     10.98189990	     -0.82419013	      0.88612359	      0.29972808	     26.83754476	      0.04033573	     -9.92128642	     -9.00152316	      0.78537736	     -0.09789812	      6.59122073	    -16.32929351	      0.54086446	      2.97711254	    -15.14600234	     17.79913436	      5.57350962	     12.99910069	     -5.51382293	     -1.10318681	    -10.57028239
      0.53733333	     -0.35268949	      0.24146528	     10.96280787	     -0.81779381	      0.88547565	      0.30010406	     26.88164103	      0.33843553	     -9.59354457	     -9.70327529	      0.26500830	     -0.58944557	      6.60965757	    -16.20754534	      0.27452085	      2.70951054	    -16.21684155	     17.62250075	      5.96344269	     13.12563697	     -5.41250079	     -0.89729987	    -10.42689610
      0.54150000	     -0.34224712	      0.10991939	     10.93183698	     -0.81138201	      0.88489348	      0.30048563	     26.91804761	      0.63448187	     -9.26248222	    -10.42955674	     -0.27381178	     -1.09448881	      6.64224514	    -16.08488659	      0.01447933	      2.45394525	    -17.30729657	     17.37122212	      6.31279513	     13.30211743	     -5.32457759	     -0.68876896	    -10.28556163
      0.54566667	     -0.33414202	     -0.02835911	     10.89775334	     -0.80495956	      0.88435183	      0.30088059	     26.95829094	      0.93798308	     -8.92595672	    -11.16440520	     -0.84148671	     -1.65335470	      6.68741234	    -15.92156680	     -0.25593790	      2.19459873	    -18.47132238	     17.07277037	      6.66530941	     13.53640585	     -5.22941531	     -0.46567988	    -10.13040972
      0.54983333	     -0.26990372	     -0.18446284	     10.87056279	     -0.79850381	      0.88391714	      0.30128106	     26.94348228	      1.26066922	     -8.65133222	    -11.92003043	     -1.36284599	     -2.16660717	      7.63109990	    -15.77289390	     -0.58356418	      1.82924940	    -19.70196713	     16.72387699	      7.15937486	     17.89525602	     -5.21082377	     -0.22524390	    -10.02834773
      0.55400000	     -0.26962710	     -0.31354168	     10.81039205	     -0.79205739	      0.88347786	      0.30170689	     26.99521820	      1.56234673	     -8.26597351	    -12.67551429	     -1.96906474	     -2.83268266	      7.61572712	    -15.56957898	     -0.82422921	      1.67113328	    -20.91557489	     16.26817975	      7.25688385	     17.99249529	     -5.11130038	     -0.02604449	     -9.80430392
      0.55816667	     -0.26505726	     -0.45544800	     10.75182474	     -0.78559452	      0.88307113	      0.30213847	     27.05342431	      1.87014314	     -7.92124031	    -13.46422236	     -2.49257703	     -3.42534698	      7.61073552	    -15.32015914	     -1.09875794	      1.43707544	    -22.21516607	     15.78932071	      7.53639472	     18.16269667	     -5.00938529	      0.18995379	     -9.61901213
